<svg id="Capa_1" enable-background="new 0 0 512 512" height="512" viewBox="0 0 512 512" width="512" xmlns="http://www.w3.org/2000/svg" xmlns:xlink="http://www.w3.org/1999/xlink"><linearGradient id="SVGID_1_" gradientUnits="userSpaceOnUse" x1="0" x2="512" y1="256" y2="256"><stop offset="0" stop-color="#80d8ff"/><stop offset="1" stop-color="#ea80fc"/></linearGradient><path d="m512 185.145c-.004-124.035-153.362-210.716-256-80.24-102.398-130.173-255.995-44.103-255.999 80.24l-.001 19.832c0 122.149 132.542 227.116 249.7 266.005 4.083 1.357 8.51 1.36 12.601 0 117.612-39.04 249.699-144.14 249.699-266.006zm-256 245.721c-96.589-33.772-216-124.357-216-225.888l.001-19.831c.002-89.309 112.786-160.402 192.151-45.192-25.775 37.442-57.703 58.619-90.853 59.944-11.037.441-19.626 9.747-19.186 20.786.44 11.003 9.706 19.626 20.783 19.188 49.712-1.988 95.769-33.538 129.762-88.85.141-.211.285-.419.418-.637 78.942-129.233 198.92-57.639 198.924 34.76v19.831c0 101.416-119.203 192.045-216 225.889z" fill="url(#SVGID_1_)"/></svg>